<?xml version="1.0" standalone="no"?>
<!DOCTYPE svg PUBLIC "-//W3C//DTD SVG 20010904//EN"
 "http://www.w3.org/TR/2001/REC-SVG-20010904/DTD/svg10.dtd">
<svg version="1.0" xmlns="http://www.w3.org/2000/svg"
 width="629.000000pt" height="629.000000pt" viewBox="0 0 629.000000 629.000000"
 preserveAspectRatio="xMidYMid meet">
<metadata>
Created by potrace 1.11, written by Peter Selinger 2001-2013
</metadata>
<g transform="translate(0.000000,629.000000) scale(0.100000,-0.100000)"
fill="#000000" stroke="none">
<path d="M198 6278 c-70 -10 -122 -47 -157 -113 l-21 -40 0 -2980 0 -2980 30
-52 c23 -41 40 -57 84 -78 l55 -27 2954 0 c2917 0 2955 0 2998 20 53 23 91 63
113 116 14 34 16 317 16 2990 0 1711 -4 2967 -9 2990 -13 53 -58 107 -116 135
l-49 25 -2926 0 c-1610 1 -2947 -2 -2972 -6z"/>
</g>
</svg>
